# xmcd
#
# Track frame offsets: 
#        150
#        19205
#        41309
#        58111
#        78927
#        99640
#        119584
#        151697
#        170019
#        186959
#        214331
#        240452
#        260419
#
# Disc length: 3965 seconds
#
# Revision: 0
# Processed by: cddbd v1.5.2PL0 Copyright (c) Steve Scherf et al.
# Submitted via: ExactAudioCopy v0.99pb3
#
DISCID=ac0f7b0d
DTITLE=Todd Wolfe - Stripped Down At The Bang Palace
DYEAR=2009
DGENRE=Blues
TTITLE0=Wing Of A Dove
TTITLE1=Stranger Blues
TTITLE2=She's Nineteen Years Old
TTITLE3=Bad Boy
TTITLE4=Black Night
TTITLE5=Roll Over
TTITLE6=Come In My Kitchen
TTITLE7=Evil
TTITLE8=Mississippi Queen
TTITLE9=Three O'Clock Blues
TTITLE10=It's All Over Now
TTITLE11=Light Of Day
TTITLE12=Wreck My Life
EXTD=
EXTT0=
EXTT1=
EXTT2=
EXTT3=
EXTT4=
EXTT5=
EXTT6=
EXTT7=
EXTT8=
EXTT9=
EXTT10=
EXTT11=
EXTT12=
PLAYORDER=
